HIERARCHY
ROOT Hips
{
	OFFSET 0.00000 0.00000 0.00000
	CHANNELS 6 Xposition Yposition Zposition Zrotation Yrotation Xrotation 
	JOINT LHipJoint
	{
		OFFSET 0 0 0
		CHANNELS 3 Zrotation Yrotation Xrotation
		JOINT LeftUpLeg
		{
			OFFSET 1.38615 -1.80049 0.80104
			CHANNELS 3 Zrotation Yrotation Xrotation
			JOINT LeftLeg
			{
				OFFSET 2.50172 -6.87341 0.00000
				CHANNELS 3 Zrotation Yrotation Xrotation
				JOINT LeftFoot
				{
					OFFSET 2.67523 -7.35014 0.00000
					CHANNELS 3 Zrotation Yrotation Xrotation
					JOINT LeftToeBase
					{
						OFFSET 0.17446 -0.47932 2.13155
						CHANNELS 3 Zrotation Yrotation Xrotation
						End Site
						{
							OFFSET 0.00000 -0.00000 1.10023
						}
					}
				}
			}
		}
	}
	JOINT RHipJoint
	{
		OFFSET 0 0 0
		CHANNELS 3 Zrotation Yrotation Xrotation
		JOINT RightUpLeg
		{
			OFFSET -1.18047 -1.80049 0.80104
			CHANNELS 3 Zrotation Yrotation Xrotation
			JOINT RightLeg
			{
				OFFSET -2.59789 -7.13765 0.00000
				CHANNELS 3 Zrotation Yrotation Xrotation
				JOINT RightFoot
				{
					OFFSET -2.62125 -7.20183 0.00000
					CHANNELS 3 Zrotation Yrotation Xrotation
					JOINT RightToeBase
					{
						OFFSET -0.31287 -0.85960 2.07814
						CHANNELS 3 Zrotation Yrotation Xrotation
						End Site
						{
							OFFSET -0.00000 -0.00000 1.11766
						}
					}
				}
			}
		}
	}
	JOINT LowerBack
	{
		OFFSET 0 0 0
		CHANNELS 3 Zrotation Yrotation Xrotation
		JOINT Spine
		{
			OFFSET -0.01587 2.16157 -0.12309
			CHANNELS 3 Zrotation Yrotation Xrotation
			JOINT Spine1
			{
				OFFSET 0.04727 2.16674 -0.03569
				CHANNELS 3 Zrotation Yrotation Xrotation
				JOINT Neck
				{
					OFFSET 0 0 0
					CHANNELS 3 Zrotation Yrotation Xrotation
					JOINT Neck1
					{
						OFFSET -0.08586 1.60335 0.32783
						CHANNELS 3 Zrotation Yrotation Xrotation
						JOINT Head
						{
							OFFSET 0.07583 1.65857 -0.31618
							CHANNELS 3 Zrotation Yrotation Xrotation
							End Site
							{
								OFFSET 0.03386 1.69434 -0.14584
							}
						}
					}
				}
				JOINT LeftShoulder
				{
					OFFSET 0 0 0
					CHANNELS 3 Zrotation Yrotation Xrotation
					JOINT LeftArm
					{
						OFFSET 3.17393 1.01901 -0.52897
						CHANNELS 3 Zrotation Yrotation Xrotation
						JOINT LeftForeArm
						{
							OFFSET 5.25287 -0.00000 -0.00000
							CHANNELS 3 Zrotation Yrotation Xrotation
							JOINT LeftHand
							{
								OFFSET 3.51014 -0.00000 0.00000
								CHANNELS 3 Zrotation Yrotation Xrotation
								JOINT LeftFingerBase
								{
									OFFSET 0 0 0
									CHANNELS 3 Zrotation Yrotation Xrotation
									JOINT LeftHandIndex1
									{
										OFFSET 0.70618 -0.00000 -0.00000
										CHANNELS 3 Zrotation Yrotation Xrotation
										End Site
										{
											OFFSET 0.56934 -0.00000 -0.00000
										}
									}
								}
								JOINT LThumb
								{
									OFFSET 0 0 0
									CHANNELS 3 Zrotation Yrotation Xrotation
									End Site
									{
										OFFSET 0.57803 -0.00000 0.57803
									}
								}
							}
						}
					}
				}
				JOINT RightShoulder
				{
					OFFSET 0 0 0
					CHANNELS 3 Zrotation Yrotation Xrotation
					JOINT RightArm
					{
						OFFSET -2.99471 1.26495 -0.61125
						CHANNELS 3 Zrotation Yrotation Xrotation
						JOINT RightForeArm
						{
							OFFSET -5.28721 -0.00000 -0.00000
							CHANNELS 3 Zrotation Yrotation Xrotation
							JOINT RightHand
							{
								OFFSET -3.50544 -0.00000 0.00000
								CHANNELS 3 Zrotation Yrotation Xrotation
								JOINT RightFingerBase
								{
									OFFSET 0 0 0
									CHANNELS 3 Zrotation Yrotation Xrotation
									JOINT RightHandIndex1
									{
										OFFSET -0.88500 -0.00000 -0.00000
										CHANNELS 3 Zrotation Yrotation Xrotation
										End Site
										{
											OFFSET -0.71351 -0.00000 -0.00000
										}
									}
								}
								JOINT RThumb
								{
									OFFSET 0 0 0
									CHANNELS 3 Zrotation Yrotation Xrotation
									End Site
									{
										OFFSET -0.72440 -0.00000 0.72440
									}
								}
							}
						}
					}
				}
			}
		}
	}
}
MOTION
Frames: 8
Frame Time: .0083333
3.8227 17.937 14.8646 0 0 0 0 0 0 -21 0 0 0 0 0 0 0 0 0 0 0 0 0 0 21 0 0 0 0 0 0 0 0 0 0 0 0 0 0 0 0 0 0 0 0 0 0 -16 0 0 21 0 0 11 0 0 0 -8 0 0 0 0 0 0 0 0 0 0 0 0 0 0 0 0 0 0 0 0 8 0 0 0 0 0 0 0 0 0 0 0 0 0 0 0 0 0
3.8227 17.9370 14.8646 178.4820 -2.7519 -172.9330 0.0000 0.0000 0.0000 -21.3900 2.2506 10.6328 1.5873 7.9475 22.5548 -0.3924 -11.5366 0.6029 3.2423 -11.0773 -32.5410 0.0000 0.0000 0.0000 16.4063 9.6961 -34.7933 -3.3565 -11.2510 33.1311 -0.2432 -0.0690 -9.3409 -0.0540 1.4992 -4.1234 -6.6634 -1.3561 -2.8085 1.0084 -1.6374 -0.5521 4.7193 -0.8530 1.2217 -12.1953 -7.0832 -22.6927 9.5322 -7.9815 24.7662 4.3333 -3.2580 12.9858 -0.0000 0.0000 0.0000 -82.0773 -10.7092 19.5790 14.8304 -23.9094 -3.1569 -0.0000 -0.0000 6.6686 11.9308 37.6394 7.3526 -7.1250 0.0000 -0.0000 -29.5780 65.9318 -15.5350 -0.0000 0.0000 0.0000 70.4456 16.5638 11.3827 -14.6693 23.6833 -3.0919 0.0000 0.0000 8.2715 6.6971 -2.7389 -0.3215 7.1250 -0.0000 -0.0000 26.1530 -31.8263 9.3040
3.8431 17.9307 14.6746 178.5120 -2.5543 -173.0430 0.0000 0.0000 0.0000 -21.3050 2.1758 9.6142 1.9226 8.7029 24.8702 -0.4189 -11.4523 2.8627 3.3231 -11.2006 -32.9595 0.0000 0.0000 0.0000 16.5957 9.9239 -34.1722 -3.4684 -11.4172 33.7001 -0.2628 0.4221 -9.5431 -0.0647 1.6406 -4.5135 -6.6232 -1.2994 -2.8105 1.0060 -1.5515 -0.3203 4.6951 -0.8219 1.4507 -12.2823 -7.0719 -22.6882 9.6566 -7.9736 24.4246 4.3861 -3.2567 12.8559 -0.0000 -0.0000 0.0000 -82.5158 -10.0084 17.9119 13.8799 -22.5628 -2.7819 -0.0000 -0.0000 7.8931 11.7620 38.0950 7.3204 -7.1250 0.0000 -0.0000 -30.3653 66.2649 -16.2112 -0.0000 -0.0000 0.0000 71.2813 15.0103 10.0054 -13.1856 21.5585 -2.5211 0.0000 0.0000 8.4048 5.2280 -1.4551 -0.1331 7.1250 -0.0000 -0.0000 24.7466 -30.7384 9.4255
3.8631 17.9297 14.4901 178.4920 -2.4874 -173.0560 0.0000 0.0000 0.0000 -21.3085 1.6766 8.3746 2.3485 9.5570 27.5538 -0.3837 -11.0314 5.8807 2.5777 -9.9779 -28.9051 0.0000 0.0000 0.0000 16.7061 10.0985 -33.6212 -3.5570 -11.5463 34.1452 -0.2613 0.4063 -9.5195 -0.0784 1.8059 -4.9697 -6.6277 -1.2096 -2.7646 0.9652 -1.4313 -0.2492 4.6609 -0.7643 1.4819 -12.2113 -7.0617 -22.2711 9.6602 -8.0219 23.8538 4.3509 -3.2913 12.5471 -0.0000 0.0000 0.0000 -82.9367 -9.0566 16.5236 13.0606 -21.3759 -2.4753 -0.0000 -0.0000 8.9075 11.4400 38.8272 7.2308 -7.1250 0.0000 -0.0000 -31.7274 66.7759 -17.3659 -0.0000 0.0000 0.0000 72.0844 13.1885 7.4615 -12.5377 20.6060 -2.2880 0.0000 0.0000 16.1048 7.9167 -3.5326 -0.4909 7.1250 -0.0000 -0.0000 27.2648 -32.4681 9.3107
3.8845 17.9501 14.3032 178.6550 -2.4812 -173.0600 0.0000 0.0000 0.0000 -21.0813 1.0517 7.1201 2.8101 10.3811 30.2200 -0.2453 -10.2445 9.4580 1.6283 -8.0446 -22.8495 0.0000 0.0000 0.0000 17.0633 10.1883 -33.1283 -3.6296 -11.6504 34.5063 -0.2635 0.4293 -9.5534 -0.0718 1.7290 -4.7572 -6.5636 -1.1602 -2.6049 1.0733 -1.3800 -0.2796 4.7430 -0.7331 1.3553 -12.1163 -7.0106 -22.0348 9.4850 -7.9535 23.5537 4.2712 -3.2873 12.3586 -0.0000 0.0000 0.0000 -83.4173 -7.9201 15.0694 12.3376 -20.3090 -2.2181 -0.0000 -0.0000 10.0958 10.1455 40.5244 6.6323 -7.1250 0.0000 -0.0000 -35.6725 67.7422 -20.5086 -0.0000 0.0000 0.0000 72.7214 11.2262 5.1154 -11.6384 19.2601 -1.9814 0.0000 0.0000 22.9509 8.4059 -2.8393 -0.4194 7.1250 -0.0000 -0.0000 27.4214 -31.8151 9.8696
3.9053 17.9739 14.1180 179.1530 -2.4217 -173.0550 0.0000 0.0000 0.0000 -20.4422 0.6024 5.6541 3.3417 11.2286 33.0549 -0.0698 -9.6115 12.4259 1.1900 -6.9223 -19.4853 0.0000 0.0000 0.0000 17.8238 10.2709 -32.5907 -3.6818 -11.7244 34.7640 -0.2651 0.6733 -9.5093 -0.0449 1.3678 -3.7615 -6.1384 -1.1919 -2.5804 1.3508 -1.4309 -0.0776 4.7878 -0.7671 1.5541 -12.1038 -6.9710 -22.5294 9.2203 -7.7910 23.4439 4.1833 -3.2504 12.3763 0.0000 0.0000 0.0000 -84.0124 -7.2560 12.9825 11.5291 -19.0948 -1.9455 -0.0000 -0.0000 11.7323 8.5004 41.5601 5.6624 -7.1250 0.0000 -0.0000 -39.0913 68.0220 -22.9392 0.0000 0.0000 0.0000 73.1887 9.8401 2.6114 -10.5774 17.6377 -1.6456 0.0000 0.0000 28.9790 8.0166 -1.2103 -0.1704 7.1250 -0.0000 -0.0000 26.6965 -30.3715 10.5996
3.9226 17.9859 13.9453 179.7590 -2.4769 -172.8890 0.0000 0.0000 0.0000 -19.6437 0.0482 3.9060 3.9344 12.0726 35.9895 0.0735 -9.5128 14.7460 0.9937 -6.3444 -17.7869 0.0000 0.0000 0.0000 18.6238 10.5519 -32.1565 -3.7113 -11.7660 34.9092 -0.2677 0.5563 -9.5915 -0.0297 1.1128 -3.0592 -5.4407 -1.2307 -2.5192 1.5814 -1.5089 0.0142 4.6296 -0.8060 1.6125 -12.0277 -6.9741 -22.9572 8.9481 -7.7140 23.3494 4.0679 -3.2459 12.3948 -0.0000 0.0000 0.0000 -84.5501 -6.5025 11.0553 10.7610 -17.9209 -1.7016 -0.0000 -0.0000 13.0401 8.4260 41.9509 5.6552 -7.1250 0.0000 -0.0000 -39.8459 68.2875 -23.6649 -0.0000 0.0000 0.0000 73.8034 8.4102 -0.8652 -9.4786 15.9198 -1.3283 0.0000 0.0000 34.7044 6.9890 0.3963 0.0486 7.1250 -0.0000 -0.0000 25.5605 -28.9690 11.0143
3.9429 18.0048 13.7692 180.2090 -2.7094 -172.7550 0.0000 0.0000 0.0000 -18.9444 -0.7029 2.2130 4.5789 12.8932 38.9701 0.2756 -9.1552 17.1135 0.6018 -4.9660 -13.8116 0.0000 0.0000 0.0000 19.2711 10.8315 -31.6059 -3.7106 -11.7650 34.9057 -0.2823 0.0665 -10.0135 -0.0377 1.2537 -3.4471 -4.9693 -1.2737 -2.4171 1.7325 -1.5881 0.0809 4.5178 -0.8451 1.6247 -11.7445 -6.9737 -23.3584 8.6668 -7.7053 23.3294 3.9052 -3.2504 12.4356 -0.0000 -0.0000 0.0000 -84.8981 -5.5644 9.6264 10.1707 -17.0061 -1.5245 -0.0000 -0.0000 14.1710 8.5822 42.2032 5.7889 -7.1250 0.0000 -0.0000 -40.1366 68.5214 -24.0612 -0.0000 -0.0000 0.0000 74.5120 6.6908 -4.6538 -8.6387 14.5827 -1.1074 0.0000 0.0000 40.0566 5.6012 2.0635 0.2023 7.1250 -0.0000 -0.0000 24.1973 -27.5055 11.2461
